<svg id="e40d5b77-0533-4a70-8542-a38e42524070" data-name="Capa 1" xmlns="http://www.w3.org/2000/svg" viewBox="0 0 555.77 206.76">
  <title>1</title>
  <g>
    <path d="M69.57,110.88q11-1.38,15.66-3.44,8.44-3.57,8.45-11.14,0-9.22-6.48-12.73t-19-3.51q-14.08,0-19.94,6.88Q44,92,42.65,100.7H4.81Q6.06,81,15.87,68.37q15.6-19.82,53.6-19.81,24.73,0,43.94,9.77t19.2,36.87V164q0,7.16.28,17.33.41,7.71,2.34,10.46a14.07,14.07,0,0,0,5.77,4.54v5.77H98.36a43.63,43.63,0,0,1-2.48-8.53c-.46-2.65-.82-5.68-1.1-9.07a80.8,80.8,0,0,1-18.82,15,56.85,56.85,0,0,1-28.78,7.29q-20.47,0-33.83-11.62T0,162.19q0-27.65,21.48-40,11.77-6.73,34.65-9.63Zm24,18.29a43.08,43.08,0,0,1-7.6,3.79,65,65,0,0,1-10.53,2.68l-8.92,1.65q-12.55,2.21-18,5.37Q39.2,148,39.21,159.3q0,10,5.65,14.51a21.46,21.46,0,0,0,13.76,4.48,41,41,0,0,0,23.68-7.43q10.83-7.44,11.24-27.1Z" fill="#fff"/>
    <path d="M151.46,81.44V53.51h20.91V11.69h38.79V53.51h24.35V81.44H211.16v79.24q0,9.21,2.34,11.48t14.31,2.27c1.19,0,2.45,0,3.78-.07s2.64-.11,3.92-.2v29.3l-18.57.69q-27.8,1-38-9.63-6.6-6.74-6.6-20.77V81.44Z" fill="#fff"/>
    <path d="M245.76,202.08l51.18-75.93L248,52.41h48l25,43.44L345.5,52.41h46.63l-49.25,73.05,51.18,76.62H345.22L319.41,157l-26.05,45.08Z" fill="#c1d731"/>
    <path d="M417,0h38.52V109.39l49.45-56.56h48.76l-53.75,55.85,55.83,93.4H508.05L471.72,138,455.48,154.9v47.18H417Z" fill="#fff"/>
  </g>
</svg>
