<svg id="b9231783-2c83-4db9-b3f5-0b26d0a59121" data-name="e40d5b77-0533-4a70-8542-a38e42524070" xmlns="http://www.w3.org/2000/svg" viewBox="0 0 555.77 206.76">
  <title>logoB</title>
  <g>
    <path d="M69.57,110.88q11-1.38,15.66-3.44,8.44-3.57,8.45-11.14,0-9.22-6.48-12.73t-19-3.51q-14.08,0-19.94,6.88Q44,92,42.65,100.7H4.81Q6.06,81,15.87,68.37q15.6-19.82,53.6-19.81,24.73,0,43.94,9.77t19.2,36.87V164q0,7.16.28,17.33.41,7.71,2.34,10.46a14.1,14.1,0,0,0,5.77,4.54v5.77H98.36a43.63,43.63,0,0,1-2.48-8.53c-.46-2.65-.82-5.68-1.1-9.07A80.72,80.72,0,0,1,76,199.5a56.84,56.84,0,0,1-28.78,7.29q-20.47,0-33.83-11.62T0,162.19q0-27.65,21.48-40,11.77-6.73,34.65-9.63Zm24,18.29A43.11,43.11,0,0,1,86,133a64.76,64.76,0,0,1-10.53,2.68l-8.92,1.65q-12.55,2.21-18,5.37Q39.21,148,39.21,159.3q0,10,5.65,14.51a21.49,21.49,0,0,0,13.76,4.48,41,41,0,0,0,23.68-7.43q10.83-7.44,11.24-27.1Z"/>
    <path d="M151.46,81.44V53.51h20.91V11.69h38.79V53.51h24.35V81.44H211.16v79.24q0,9.21,2.34,11.48t14.31,2.27c1.19,0,2.45,0,3.78-.07s2.64-.11,3.92-.2v29.3l-18.57.69q-27.8,1-38-9.63-6.6-6.74-6.6-20.77V81.44Z"/>
    <path d="M245.76,202.08l51.18-75.93L248,52.41h48l25,43.44,24.5-43.44h46.63l-49.25,73.05,51.18,76.62H345.22L319.41,157l-26.05,45.08Z" fill="#c1d731"/>
    <path d="M417,0h38.52V109.39L505,52.83h48.76L500,108.68l55.83,93.4H508.05L471.72,138l-16.24,16.9v47.18H417Z"/>
  </g>
</svg>
